<svg width="82" height="156" viewBox="0 0 82 156" fill="none" xmlns="http://www.w3.org/2000/svg">
<path d="M4.18554 0.165132C2.26775 0.165132 0.714355 1.71847 0.714355 3.63626C0.714355 5.55406 2.26775 7.1134 4.18554 7.1134C6.10334 7.1134 7.65668 5.55406 7.65668 3.63626C7.65668 1.71847 6.10334 0.165132 4.18554 0.165132Z" fill="#241F20"/>
<path d="M22.7422 0.165132C20.8244 0.165132 19.265 1.71847 19.265 3.63626C19.265 5.55406 20.8244 7.1134 22.7422 7.1134C24.66 7.1134 26.2133 5.55406 26.2133 3.63626C26.2133 1.71847 24.66 0.165132 22.7422 0.165132Z" fill="#241F20"/>
<path d="M41.2988 0.165132C39.381 0.165132 37.8276 1.71847 37.8276 3.63626C37.8276 5.55406 39.381 7.1134 41.2988 7.1134C43.2166 7.1134 44.7759 5.55406 44.7759 3.63626C44.7759 1.71847 43.2166 0.165132 41.2988 0.165132Z" fill="#241F20"/>
<path d="M59.8552 0.165132C57.9315 0.165132 56.384 1.71847 56.384 3.63626C56.384 5.55406 57.9315 7.1134 59.8552 7.1134C61.773 7.1134 63.3264 5.55406 63.3264 3.63626C63.3264 1.71847 61.773 0.165132 59.8552 0.165132Z" fill="#241F20"/>
<path d="M78.408 7.11475C80.3273 7.11475 81.8833 5.55878 81.8833 3.6395C81.8833 1.72022 80.3273 0.164193 78.408 0.164193C76.4887 0.164193 74.9327 1.72022 74.9327 3.6395C74.9327 5.55878 76.4887 7.11475 78.408 7.11475Z" fill="#241F20"/>
<path d="M4.18605 18.7203C2.26963 18.7203 0.716553 20.2733 0.716553 22.1956C0.716553 24.112 2.26963 25.6651 4.18605 25.6651C6.10247 25.6651 7.65554 24.112 7.65554 22.1956C7.65554 20.2733 6.10247 18.7203 4.18605 18.7203Z" fill="#241F20"/>
<path d="M22.7466 18.7203C20.8243 18.7203 19.2654 20.2733 19.2654 22.1956C19.2654 24.112 20.8243 25.6651 22.7466 25.6651C24.663 25.6651 26.2161 24.112 26.2161 22.1956C26.2161 20.2733 24.663 18.7203 22.7466 18.7203Z" fill="#241F20"/>
<path d="M41.2954 18.7203C39.379 18.7203 37.8259 20.2733 37.8259 22.1956C37.8259 24.112 39.379 25.6651 41.2954 25.6651C43.2177 25.6651 44.7766 24.112 44.7766 22.1956C44.7766 20.2733 43.2177 18.7203 41.2954 18.7203Z" fill="#241F20"/>
<path d="M59.8586 18.7177C57.9338 18.7177 56.3833 20.2742 56.3833 22.193C56.3833 24.1118 57.9338 25.6683 59.8586 25.6683C61.7715 25.6683 63.328 24.1118 63.328 22.193C63.328 20.2742 61.7715 18.7177 59.8586 18.7177Z" fill="#241F20"/>
<path d="M78.408 18.7211C76.4887 18.7211 74.9327 20.2772 74.9327 22.1964C74.9327 24.1157 76.4887 25.6717 78.408 25.6717C80.3273 25.6717 81.8833 24.1157 81.8833 22.1964C81.8833 20.2772 80.3273 18.7211 78.408 18.7211Z" fill="#241F20"/>
<path d="M4.18476 37.2762C2.26911 37.2762 0.713379 38.832 0.713379 40.7534C0.713379 42.6691 2.26911 44.2248 4.18476 44.2248C6.10041 44.2248 7.65619 42.6691 7.65619 40.7534C7.65619 38.832 6.10041 37.2762 4.18476 37.2762Z" fill="#241F20"/>
<path d="M22.7433 37.2762C20.8218 37.2762 19.2661 38.832 19.2661 40.7534C19.2661 42.6691 20.8218 44.2248 22.7433 44.2248C24.6589 44.2248 26.2147 42.6691 26.2147 40.7534C26.2147 38.832 24.6589 37.2762 22.7433 37.2762Z" fill="#241F20"/>
<path d="M41.2941 37.2794C39.377 37.2794 37.8213 38.8351 37.8213 40.7522C37.8213 42.6692 39.377 44.225 41.2941 44.225C43.2169 44.225 44.7727 42.6692 44.7727 40.7522C44.7727 38.8351 43.2169 37.2794 41.2941 37.2794Z" fill="#241F20"/>
<path d="M59.8586 37.2762C57.9338 37.2762 56.3833 38.8326 56.3833 40.7515C56.3833 42.6703 57.9338 44.2208 59.8586 44.2208C61.7715 44.2208 63.328 42.6703 63.328 40.7515C63.328 38.8326 61.7715 37.2762 59.8586 37.2762Z" fill="#241F20"/>
<path d="M78.408 37.2783C76.4887 37.2783 74.9327 38.8343 74.9327 40.7536C74.9327 42.6728 76.4887 44.2228 78.408 44.2228C80.3273 44.2228 81.8833 42.6728 81.8833 40.7536C81.8833 38.8343 80.3273 37.2783 78.408 37.2783Z" fill="#241F20"/>
<path d="M4.18476 55.8349C2.26911 55.8349 0.713379 57.3906 0.713379 59.3062C0.713379 61.2277 2.26911 62.7834 4.18476 62.7834C6.10041 62.7834 7.65619 61.2277 7.65619 59.3062C7.65619 57.3906 6.10041 55.8349 4.18476 55.8349Z" fill="#241F20"/>
<path d="M22.7433 55.8349C20.8218 55.8349 19.2661 57.3906 19.2661 59.3062C19.2661 61.2277 20.8218 62.7834 22.7433 62.7834C24.6589 62.7834 26.2147 61.2277 26.2147 59.3062C26.2147 57.3906 24.6589 55.8349 22.7433 55.8349Z" fill="#241F20"/>
<path d="M41.2941 55.8321C39.377 55.8321 37.8213 57.3878 37.8213 59.3106C37.8213 61.2277 39.377 62.7834 41.2941 62.7834C43.2169 62.7834 44.7727 61.2277 44.7727 59.3106C44.7727 57.3878 43.2169 55.8321 41.2941 55.8321Z" fill="#241F20"/>
<path d="M59.8586 55.835C57.9338 55.835 56.3833 57.3855 56.3833 59.3043C56.3833 61.2231 57.9338 62.7796 59.8586 62.7796C61.7715 62.7796 63.328 61.2231 63.328 59.3043C63.328 57.3855 61.7715 55.835 59.8586 55.835Z" fill="#241F20"/>
<path d="M78.408 55.8353C76.4887 55.8353 74.9327 57.3913 74.9327 59.3106C74.9327 61.2298 76.4887 62.7798 78.408 62.7798C80.3273 62.7798 81.8833 61.2298 81.8833 59.3106C81.8833 57.3913 80.3273 55.8353 78.408 55.8353Z" fill="#241F20"/>
<path d="M4.18476 74.3935C2.26911 74.3935 0.713379 75.9434 0.713379 77.8649C0.713379 79.7805 2.26911 81.3362 4.18476 81.3362C6.10041 81.3362 7.65619 79.7805 7.65619 77.8649C7.65619 75.9434 6.10041 74.3935 4.18476 74.3935Z" fill="#241F20"/>
<path d="M22.7433 74.3935C20.8218 74.3935 19.2661 75.9434 19.2661 77.8649C19.2661 79.7805 20.8218 81.3362 22.7433 81.3362C24.6589 81.3362 26.2147 79.7805 26.2147 77.8649C26.2147 75.9434 24.6589 74.3935 22.7433 74.3935Z" fill="#241F20"/>
<path d="M41.2941 74.3903C39.377 74.3903 37.8213 75.9461 37.8213 77.8631C37.8213 79.7801 39.377 81.3359 41.2941 81.3359C43.2169 81.3359 44.7727 79.7801 44.7727 77.8631C44.7727 75.9461 43.2169 74.3903 41.2941 74.3903Z" fill="#241F20"/>
<path d="M59.8586 74.3877C57.9338 74.3877 56.3833 75.9441 56.3833 77.863C56.3833 79.7818 57.9338 81.3383 59.8586 81.3383C61.7715 81.3383 63.328 79.7818 63.328 77.863C63.328 75.9441 61.7715 74.3877 59.8586 74.3877Z" fill="#241F20"/>
<path d="M78.408 74.3923C76.4887 74.3923 74.9327 75.9484 74.9327 77.8676C74.9327 79.7809 76.4887 81.3369 78.408 81.3369C80.3273 81.3369 81.8833 79.7809 81.8833 77.8676C81.8833 75.9484 80.3273 74.3923 78.408 74.3923Z" fill="#241F20"/>
<path d="M4.18476 92.9462C2.26911 92.9462 0.713379 94.5019 0.713379 96.4176C0.713379 98.339 2.26911 99.8948 4.18476 99.8948C6.10041 99.8948 7.65619 98.339 7.65619 96.4176C7.65619 94.5019 6.10041 92.9462 4.18476 92.9462Z" fill="#241F20"/>
<path d="M22.7433 92.9462C20.8218 92.9462 19.2661 94.5019 19.2661 96.4176C19.2661 98.339 20.8218 99.8948 22.7433 99.8948C24.6589 99.8948 26.2147 98.339 26.2147 96.4176C26.2147 94.5019 24.6589 92.9462 22.7433 92.9462Z" fill="#241F20"/>
<path d="M41.2941 92.9489C39.377 92.9489 37.8213 94.5046 37.8213 96.4216C37.8213 98.3387 39.377 99.8944 41.2941 99.8944C43.2169 99.8944 44.7727 98.3387 44.7727 96.4216C44.7727 94.5046 43.2169 92.9489 41.2941 92.9489Z" fill="#241F20"/>
<path d="M59.8586 92.9463C57.9338 92.9463 56.3833 94.5027 56.3833 96.4216C56.3833 98.3345 57.9338 99.8909 59.8586 99.8909C61.7715 99.8909 63.328 98.3345 63.328 96.4216C63.328 94.5027 61.7715 92.9463 59.8586 92.9463Z" fill="#241F20"/>
<path d="M78.408 92.9494C76.4887 92.9494 74.9327 94.5054 74.9327 96.4247C74.9327 98.3379 76.4887 99.8939 78.408 99.8939C80.3273 99.8939 81.8833 98.3379 81.8833 96.4247C81.8833 94.5054 80.3273 92.9494 78.408 92.9494Z" fill="#241F20"/>
<path d="M4.18476 111.505C2.26911 111.505 0.713379 113.06 0.713379 114.976C0.713379 116.898 2.26911 118.448 4.18476 118.448C6.10041 118.448 7.65619 116.898 7.65619 114.976C7.65619 113.06 6.10041 111.505 4.18476 111.505Z" fill="#241F20"/>
<path d="M22.7433 111.505C20.8218 111.505 19.2661 113.06 19.2661 114.976C19.2661 116.898 20.8218 118.448 22.7433 118.448C24.6589 118.448 26.2147 116.898 26.2147 114.976C26.2147 113.06 24.6589 111.505 22.7433 111.505Z" fill="#241F20"/>
<path d="M41.2941 111.501C39.377 111.501 37.8213 113.057 37.8213 114.98C37.8213 116.897 39.377 118.453 41.2941 118.453C43.2169 118.453 44.7727 116.897 44.7727 114.98C44.7727 113.057 43.2169 111.501 41.2941 111.501Z" fill="#241F20"/>
<path d="M59.8586 111.505C57.9338 111.505 56.3833 113.055 56.3833 114.974C56.3833 116.893 57.9338 118.45 59.8586 118.45C61.7715 118.45 63.328 116.893 63.328 114.974C63.328 113.055 61.7715 111.505 59.8586 111.505Z" fill="#241F20"/>
<path d="M78.408 111.506C76.4887 111.506 74.9327 113.062 74.9327 114.976C74.9327 116.895 76.4887 118.451 78.408 118.451C80.3273 118.451 81.8833 116.895 81.8833 114.976C81.8833 113.062 80.3273 111.506 78.408 111.506Z" fill="#241F20"/>
<path d="M4.18476 130.057C2.26911 130.057 0.713379 131.613 0.713379 133.535C0.713379 135.45 2.26911 137.006 4.18476 137.006C6.10041 137.006 7.65619 135.45 7.65619 133.535C7.65619 131.613 6.10041 130.057 4.18476 130.057Z" fill="#241F20"/>
<path d="M22.7433 130.057C20.8218 130.057 19.2661 131.613 19.2661 133.535C19.2661 135.45 20.8218 137.006 22.7433 137.006C24.6589 137.006 26.2147 135.45 26.2147 133.535C26.2147 131.613 24.6589 130.057 22.7433 130.057Z" fill="#241F20"/>
<path d="M41.2941 130.06C39.377 130.06 37.8213 131.616 37.8213 133.533C37.8213 135.456 39.377 137.005 41.2941 137.005C43.2169 137.005 44.7727 135.456 44.7727 133.533C44.7727 131.616 43.2169 130.06 41.2941 130.06Z" fill="#241F20"/>
<path d="M59.8586 130.058C57.9338 130.058 56.3833 131.614 56.3833 133.533C56.3833 135.452 57.9338 137.002 59.8586 137.002C61.7715 137.002 63.328 135.452 63.328 133.533C63.328 131.614 61.7715 130.058 59.8586 130.058Z" fill="#241F20"/>
<path d="M78.408 130.063C76.4887 130.063 74.9327 131.613 74.9327 133.533C74.9327 135.452 76.4887 137.008 78.408 137.008C80.3273 137.008 81.8833 135.452 81.8833 133.533C81.8833 131.613 80.3273 130.063 78.408 130.063Z" fill="#241F20"/>
<path d="M4.18476 148.616C2.26911 148.616 0.713379 150.172 0.713379 152.087C0.713379 154.009 2.26911 155.565 4.18476 155.565C6.10041 155.565 7.65619 154.009 7.65619 152.087C7.65619 150.172 6.10041 148.616 4.18476 148.616Z" fill="#241F20"/>
<path d="M22.7433 148.616C20.8218 148.616 19.2661 150.172 19.2661 152.087C19.2661 154.009 20.8218 155.565 22.7433 155.565C24.6589 155.565 26.2147 154.009 26.2147 152.087C26.2147 150.172 24.6589 148.616 22.7433 148.616Z" fill="#241F20"/>
<path d="M41.2941 148.618C39.377 148.618 37.8213 150.174 37.8213 152.091C37.8213 154.008 39.377 155.564 41.2941 155.564C43.2169 155.564 44.7727 154.008 44.7727 152.091C44.7727 150.174 43.2169 148.618 41.2941 148.618Z" fill="#241F20"/>
<path d="M59.8586 148.616C57.9338 148.616 56.3833 150.173 56.3833 152.086C56.3833 154.004 57.9338 155.561 59.8586 155.561C61.7715 155.561 63.328 154.004 63.328 152.086C63.328 150.173 61.7715 148.616 59.8586 148.616Z" fill="#241F20"/>
<path d="M78.408 148.62C76.4887 148.62 74.9327 150.17 74.9327 152.09C74.9327 154.009 76.4887 155.565 78.408 155.565C80.3273 155.565 81.8833 154.009 81.8833 152.09C81.8833 150.17 80.3273 148.62 78.408 148.62Z" fill="#241F20"/>
</svg>
