<svg width="82" height="82" viewBox="0 0 82 82" fill="none" xmlns="http://www.w3.org/2000/svg">
<path d="M4.14969 0.649197C2.232 0.649197 0.676514 2.20406 0.676514 4.12055C0.676514 6.04306 2.232 7.59796 4.14969 7.59796C6.06799 7.59796 7.62288 6.04306 7.62288 4.12055C7.62288 2.20406 6.06799 0.649197 4.14969 0.649197Z" fill="#241F20"/>
<path d="M22.7065 0.649197C20.7888 0.649197 19.2327 2.20406 19.2327 4.12055C19.2327 6.04306 20.7888 7.59796 22.7065 7.59796C24.6242 7.59796 26.1796 6.04306 26.1796 4.12055C26.1796 2.20406 24.6242 0.649197 22.7065 0.649197Z" fill="#241F20"/>
<path d="M41.2621 0.649197C39.3444 0.649197 37.7896 2.20406 37.7896 4.12055C37.7896 6.04306 39.3444 7.59796 41.2621 7.59796C43.1804 7.59796 44.7359 6.04306 44.7359 4.12055C44.7359 2.20406 43.1804 0.649197 41.2621 0.649197Z" fill="#241F20"/>
<path d="M59.8189 0.649197C57.9006 0.649197 56.3457 2.20406 56.3457 4.12055C56.3457 6.04306 57.9006 7.59796 59.8189 7.59796C61.7366 7.59796 63.2927 6.04306 63.2927 4.12055C63.2927 2.20406 61.7366 0.649197 59.8189 0.649197Z" fill="#241F20"/>
<path d="M78.3749 7.59796C80.2938 7.59796 81.8481 6.04306 81.8481 4.12055C81.8481 2.20406 80.2938 0.649197 78.3749 0.649197C76.4572 0.649197 74.9023 2.20406 74.9023 4.12055C74.9023 6.04306 76.4572 7.59796 78.3749 7.59796Z" fill="#241F20"/>
<path d="M4.15021 19.2044C2.23208 19.2044 0.677002 20.7595 0.677002 22.6753C0.677002 24.597 2.23208 26.152 4.15021 26.152C6.06894 26.152 7.62342 24.597 7.62342 22.6753C7.62342 20.7595 6.06894 19.2044 4.15021 19.2044Z" fill="#241F20"/>
<path d="M22.7072 19.2044C20.7891 19.2044 19.2334 20.7595 19.2334 22.6753C19.2334 24.597 20.7891 26.152 22.7072 26.152C24.6247 26.152 26.1804 24.597 26.1804 22.6753C26.1804 20.7595 24.6247 19.2044 22.7072 19.2044Z" fill="#241F20"/>
<path d="M41.2629 19.2044C39.3448 19.2044 37.7903 20.7595 37.7903 22.6753C37.7903 24.597 39.3448 26.152 41.2629 26.152C43.181 26.152 44.7367 24.597 44.7367 22.6753C44.7367 20.7595 43.181 19.2044 41.2629 19.2044Z" fill="#241F20"/>
<path d="M59.8196 19.2044C57.9009 19.2044 56.3464 20.7595 56.3464 22.6753C56.3464 24.597 57.9009 26.152 59.8196 26.152C61.7372 26.152 63.2929 24.597 63.2929 22.6753C63.2929 20.7595 61.7372 19.2044 59.8196 19.2044Z" fill="#241F20"/>
<path d="M78.3755 19.2044C76.4579 19.2044 74.9028 20.7595 74.9028 22.6753C74.9028 24.597 76.4579 26.152 78.3755 26.152C80.2942 26.152 81.8487 24.597 81.8487 22.6753C81.8487 20.7595 80.2942 19.2044 78.3755 19.2044Z" fill="#241F20"/>
<path d="M4.15061 37.7602C2.23264 37.7602 0.67749 39.3159 0.67749 41.2316C0.67749 43.1472 2.23264 44.703 4.15061 44.703C6.06916 44.703 7.62375 43.1472 7.62375 41.2316C7.62375 39.3159 6.06916 37.7602 4.15061 37.7602Z" fill="#241F20"/>
<path d="M22.7076 37.7602C20.7896 37.7602 19.2339 39.3159 19.2339 41.2316C19.2339 43.1472 20.7896 44.703 22.7076 44.703C24.6256 44.703 26.1807 43.1472 26.1807 41.2316C26.1807 39.3159 24.6256 37.7602 22.7076 37.7602Z" fill="#241F20"/>
<path d="M41.2631 37.7602C39.3451 37.7602 37.7905 39.3159 37.7905 41.2316C37.7905 43.1472 39.3451 44.703 41.2631 44.703C43.1816 44.703 44.7368 43.1472 44.7368 41.2316C44.7368 39.3159 43.1816 37.7602 41.2631 37.7602Z" fill="#241F20"/>
<path d="M59.8201 37.7602C57.9015 37.7602 56.3469 39.3159 56.3469 41.2316C56.3469 43.1472 57.9015 44.703 59.8201 44.703C61.738 44.703 63.2938 43.1472 63.2938 41.2316C63.2938 39.3159 61.738 37.7602 59.8201 37.7602Z" fill="#241F20"/>
<path d="M78.3763 37.7602C76.4584 37.7602 74.9038 39.3159 74.9038 41.2316C74.9038 43.1472 76.4584 44.703 78.3763 44.703C80.2949 44.703 81.8495 43.1472 81.8495 41.2316C81.8495 39.3159 80.2949 37.7602 78.3763 37.7602Z" fill="#241F20"/>
<path d="M4.15061 56.3131C2.23264 56.3131 0.67749 57.8688 0.67749 59.7902C0.67749 61.7059 2.23264 63.2616 4.15061 63.2616C6.06916 63.2616 7.62375 61.7059 7.62375 59.7902C7.62375 57.8688 6.06916 56.3131 4.15061 56.3131Z" fill="#241F20"/>
<path d="M22.7076 56.3131C20.7896 56.3131 19.2339 57.8688 19.2339 59.7902C19.2339 61.7059 20.7896 63.2616 22.7076 63.2616C24.6256 63.2616 26.1807 61.7059 26.1807 59.7902C26.1807 57.8688 24.6256 56.3131 22.7076 56.3131Z" fill="#241F20"/>
<path d="M41.2631 56.3131C39.3451 56.3131 37.7905 57.8688 37.7905 59.7902C37.7905 61.7059 39.3451 63.2616 41.2631 63.2616C43.1816 63.2616 44.7368 61.7059 44.7368 59.7902C44.7368 57.8688 43.1816 56.3131 41.2631 56.3131Z" fill="#241F20"/>
<path d="M59.8201 56.3131C57.9015 56.3131 56.3469 57.8688 56.3469 59.7902C56.3469 61.7059 57.9015 63.2616 59.8201 63.2616C61.738 63.2616 63.2938 61.7059 63.2938 59.7902C63.2938 57.8688 61.738 56.3131 59.8201 56.3131Z" fill="#241F20"/>
<path d="M78.3763 56.3131C76.4584 56.3131 74.9038 57.8688 74.9038 59.7902C74.9038 61.7059 76.4584 63.2616 78.3763 63.2616C80.2949 63.2616 81.8495 61.7059 81.8495 59.7902C81.8495 57.8688 80.2949 56.3131 78.3763 56.3131Z" fill="#241F20"/>
<path d="M4.15061 74.8717C2.23264 74.8717 0.67749 76.4274 0.67749 78.3431C0.67749 80.2645 2.23264 81.8203 4.15061 81.8203C6.06916 81.8203 7.62375 80.2645 7.62375 78.3431C7.62375 76.4274 6.06916 74.8717 4.15061 74.8717Z" fill="#241F20"/>
<path d="M22.7076 74.8717C20.7896 74.8717 19.2339 76.4274 19.2339 78.3431C19.2339 80.2645 20.7896 81.8203 22.7076 81.8203C24.6256 81.8203 26.1807 80.2645 26.1807 78.3431C26.1807 76.4274 24.6256 74.8717 22.7076 74.8717Z" fill="#241F20"/>
<path d="M41.2631 74.8717C39.3451 74.8717 37.7905 76.4274 37.7905 78.3431C37.7905 80.2645 39.3451 81.8203 41.2631 81.8203C43.1816 81.8203 44.7368 80.2645 44.7368 78.3431C44.7368 76.4274 43.1816 74.8717 41.2631 74.8717Z" fill="#241F20"/>
<path d="M59.8201 74.8717C57.9015 74.8717 56.3469 76.4274 56.3469 78.3431C56.3469 80.2645 57.9015 81.8203 59.8201 81.8203C61.738 81.8203 63.2938 80.2645 63.2938 78.3431C63.2938 76.4274 61.738 74.8717 59.8201 74.8717Z" fill="#241F20"/>
<path d="M78.3763 74.8717C76.4584 74.8717 74.9038 76.4274 74.9038 78.3431C74.9038 80.2645 76.4584 81.8203 78.3763 81.8203C80.2949 81.8203 81.8495 80.2645 81.8495 78.3431C81.8495 76.4274 80.2949 74.8717 78.3763 74.8717Z" fill="#241F20"/>
</svg>
